# xmcd
# 
# Track frame offsets:
#   150
#   16676
#   34042
#   50629
#   65703
#   83285
#   100722
#   104437
#   118934
#   136330
#   154506
#   173242
#   188180
#   198484
#   217473
# 
# Disc length: 3095 seconds
# 
# Revision: 1
# Processed by: cddbd v1.5.1PL2 Copyright (c) Steve Scherf et al.
# Submitted via: VOLTOCDX V1.0.24 
# 
DISCID=cf0c150f
DTITLE=Rod Barthet - Balconnet de France
DYEAR=2005
DGENRE=blues
TTITLE0=Ado
TTITLE1=Un Peu De Calme
TTITLE2=A Paris Ou Ailleurs
TTITLE3=Absent
TTITLE4=Lettre A Elisa
TTITLE5=Croisements
TTITLE6=Vacances
TTITLE7=B.A
TTITLE8=Les Hommes Sont Frères
TTITLE9=Amours A La Gomme
TTITLE10=Etoile Filante
TTITLE11=Je Savais Pas
TTITLE12=Soleil d'Août
TTITLE13=Par Petite Annonce
TTITLE14=Apparence
EXTD=
EXTT0=
EXTT1=
EXTT2=
EXTT3=
EXTT4=
EXTT5=
EXTT6=
EXTT7=
EXTT8=
EXTT9=
EXTT10=
EXTT11=
EXTT12=
EXTT13=
EXTT14=
PLAYORDER=
